# xmcd
#
# Track frame offsets: 
#        150
#        17047
#        45658
#        62931
#        89169
#        108864
#        132842
#        151845
#        174700
#        193524
#        219155
#        243535
#        259562
#        282943
#        315668
#
# Disc length: 4245 seconds
#
# Revision: 0
# Processed by: cddbd v1.5.2PL0 Copyright (c) Steve Scherf et al.
# Submitted via: ExactAudioCopy v0.99pb4
#
DISCID=d010930f
DTITLE=Etta James - The Very Best of Etta James
DYEAR=1900
DGENRE=Blues
TTITLE0=Hound Dog
TTITLE1=I'd Rather Go Blind (Live)
TTITLE2=If I Had Any Pride Left At All
TTITLE3=Somebody To Love
TTITLE4=I've Been Lovin' You Too Long
TTITLE5=Don't Let The Sun Catch You Crying
TTITLE6=Spoonful
TTITLE7=Cry Me A River
TTITLE8=Stop On By
TTITLE9=Come Rain Or Come Shine
TTITLE10=A Change Is Gonna Do Me Good
TTITLE11=The Blues Is My Business
TTITLE12=Something's Got A Hold On Me (Live)
TTITLE13=At Last (Live)
TTITLE14=Bonus Video
EXTD=
EXTT0=
EXTT1=
EXTT2=
EXTT3=
EXTT4=
EXTT5=
EXTT6=
EXTT7=
EXTT8=
EXTT9=
EXTT10=
EXTT11=
EXTT12=
EXTT13=
EXTT14=
PLAYORDER=
